<svg xmlns="http://www.w3.org/2000/svg" style="display: none;">

    <!-- #btnPlay -->
    <symbol id="btnPlay" viewBox="0 0 16 16" xmlns="http://www.w3.org/2000/svg">
        <path transform="translate(4.000000, 2.000000)" fill="currentColor" d="M0.783,0.088 C0.630002114,-0.0170415713 0.431410671,-0.0286996621 0.267173326,0.0577189663 C0.102935981,0.144137595 7.5196355e-05,0.314414227 -8.8817842e-16,0.5 L-8.8817842e-16,11.5 C0.00034089524,11.6856642 0.103531693,11.855852 0.268,11.942 C0.339356371,11.9801972 0.419063363,12.0001239 0.5,12 C0.601058826,11.9999404 0.699727531,11.9692589 0.783,11.912 L8.783,6.412 C8.91865945,6.31871934 8.9997051,6.16463526 8.9997051,6 C8.9997051,5.83536474 8.91865945,5.68128066 8.783,5.588 L0.783,0.088 Z"></path>
    </symbol>

    <!-- #btnOtto -->
    <symbol id="btnOtto" viewBox="0 0 16 16" xmlns="http://www.w3.org/2000/svg">
        <g transform="translate(0.470000, 0.000000)" fill="currentColor">
            <path d="M12.6813373,7.71716123 C12.7214378,7.97728416 12.7422607,8.24378061 12.7422607,8.51517541 C12.7422607,11.3802534 10.4221602,13.7026742 7.56030716,13.7026742 C4.69824686,13.7026742 2.37814636,11.3802534 2.37814636,8.51517541 C2.37814636,5.72387518 4.58047048,3.44794137 7.3405647,3.33257494 C7.39334736,3.33030544 7.44629962,3.32879243 7.49944033,3.32824397 L7.49944033,3.32765768 C7.49944033,3.32765768 7.55633103,3.32444255 7.65886244,3.32746856 C7.75138756,3.33030544 7.8810358,3.33408794 8.03970415,3.33881608 C8.7412745,3.35943073 10.0370031,3.28491537 11.358718,2.6899461 C11.5614818,2.59876879 11.7459667,2.49720851 11.9138687,2.38902884 C12.667468,1.90316596 13.0871099,1.2769721 13.3164629,0.787326714 C13.5280835,0.33533617 13.577625,-1.89125295e-06 13.577625,-1.89125295e-06 C13.577625,-1.89125295e-06 13.0160861,0.517634043 11.9653323,0.787326714 C11.5954202,0.882267612 11.1653951,0.946759338 10.6771413,0.946759338 L10.4508222,0.946759338 L7.49944033,0.946759338 C7.44629962,0.946759338 7.39334736,0.947686052 7.3405647,0.948839716 C3.27211621,1.03375697 5.65326633e-06,4.36992719 5.65326633e-06,8.47335981 C5.65326633e-06,12.6303527 3.35766897,15.9999981 7.49944033,15.9999981 C11.6412117,15.9999981 14.9988562,12.6303527 14.9988562,8.47335981 C14.9988562,8.21811631 14.9860798,7.96586099 14.9613373,7.71716123 L12.6813373,7.71716123 Z"></path>
            <path d="M7.66275754,3.33183924 C8.0874309,3.34014184 8.49953518,3.3996974 8.89328518,3.50434043 C11.0963631,4.08979669 12.7230905,6.09136643 12.7418781,8.47657683 L14.9988693,8.47657683 L14.9988693,8.46072813 C14.9905025,4.36591962 11.723951,1.03895981 7.66275754,0.9518487 L7.66275754,3.33183924 Z"></path>
        </g>
    </symbol>

    <!-- #btnDownload -->
    <symbol id="btnDownload" viewBox="0 0 16 16" xmlns="http://www.w3.org/2000/svg">
        <g transform="translate(2.000000, 2.000000)" fill="currentColor">
            <path d="M10,7 L10,10 L2,10 L2,7 L0,7 L0,11 C6.76353751e-17,11.5522847 0.44771525,12 1,12 L11,12 C11.5522847,12 12,11.5522847 12,11 L12,7 L10,7 Z"></path>
            <polygon points="9.5 4 7 4 7 0 5 0 5 4 2.5 4 6 8"></polygon>
        </g>
    </symbol>

    <!-- #btnPhone -->
    <symbol id="btnPhone" viewBox="0 0 16 16" xmlns="http://www.w3.org/2000/svg">
        <path d="M7.80291579,13.709805 C6.56291579,12.900805 5.52291579,11.878805 4.63991579,10.695805 C3.65691579,9.37880501 2.90291579,7.94480501 2.48091579,6.34880501 C2.21191579,5.33380501 2.09191579,4.30580501 2.19891579,3.25380501 C2.24991579,2.73880501 2.48391579,2.32680501 2.89391579,2.03580501 C3.22191579,1.80280501 3.57591579,1.59180501 3.94491579,1.43280501 C4.35291579,1.25780501 4.78891579,1.14780501 5.21691579,1.02180501 C5.42491579,0.959805014 5.56491579,1.03080501 5.65991579,1.22480501 C6.15991579,2.23680501 6.65991579,3.25080501 7.15691579,4.26580501 C7.29691579,4.55180501 7.20891579,4.82680501 6.93091579,4.99180501 C6.59491579,5.18980501 6.25691579,5.38580501 5.91991579,5.58280501 C5.57091579,5.78580501 5.45391579,6.07780501 5.59091579,6.45580501 C5.65991579,6.64780501 5.72091579,7.61180501 6.68191579,8.93680501 C7.64391579,10.259805 8.57191579,10.642805 8.72491579,10.760805 C9.01791579,10.985805 9.34491579,10.964805 9.62291579,10.717805 C9.91491579,10.457805 10.2049158,10.196805 10.4969158,9.93780501 C10.7669158,9.69780501 11.0399158,9.70480501 11.3019158,9.95880501 C12.0939158,10.728805 12.8849158,11.497805 13.6759158,12.268805 C13.8689158,12.456805 13.8829158,12.579805 13.7409158,12.812805 C13.3959158,13.381805 13.0079158,13.916805 12.5029158,14.355805 C12.3139158,14.519805 12.1049158,14.665805 11.8879158,14.790805 C11.5179158,15.003805 11.1939158,15.044805 10.6789158,14.955805 C9.69491579,14.760805 8.71791579,14.305805 7.80291579,13.709805" fill="currentColor" ></path>
    </symbol>

    <!-- #btnCircleCheck -->
    <symbol id="btnCircleCheck" viewBox="0 0 16 16" xmlns="http://www.w3.org/2000/svg">
        <path d="M8,16 C3.581722,16 4.17635684e-15,12.418278 4.17635684e-15,8 C4.17635684e-15,3.581722 3.581722,4.17635684e-15 8,4.17635684e-15 C12.418278,4.17635684e-15 16,3.581722 16,8 C16,12.418278 12.418278,16 8,16 Z M6.61126984,9.65286976 L4.98492424,8.02652416 C4.71155724,7.75315716 4.26834175,7.75315716 3.99497475,8.02652416 C3.72160774,8.29989117 3.72160774,8.74310665 3.99497475,9.01647366 L5.90416306,10.925662 C6.29468735,11.3161863 6.92785233,11.3161863 7.31837662,10.925662 L11.737794,6.50624458 C12.011161,6.23287758 12.011161,5.78966209 11.737794,5.51629509 C11.464427,5.24292809 11.0212115,5.24292809 10.7478445,5.51629509 L6.61126984,9.65286976 Z" fill="currentColor"></path>
    </symbol>

    <!-- #btnUser -->
    <symbol id="btnUser" viewBox="0 0 16 16" xmlns="http://www.w3.org/2000/svg">
        <path d="M4.26249326,10.212766 L11.7372633,10.212766 C13.3970356,10.212766 14.7929478,11.4574611 14.9824235,13.106383 L15.1228858,14.3287635 C15.2174571,15.151775 14.6269397,15.8956227 13.8039283,15.990194 C13.7470833,15.996726 13.689911,16 13.6326919,16 L2.36706467,16 C1.53863754,16 0.867064667,15.3284271 0.867064667,14.5 C0.867064667,14.4427809 0.870338693,14.3856086 0.876870694,14.3287635 L1.01733302,13.106383 C1.2068087,11.4574611 2.60272089,10.212766 4.26249326,10.212766 Z M8.16552245,8.85106383 C5.96189202,8.85106383 4.1754966,6.8696857 4.1754966,4.42553191 C4.1754966,1.98137813 5.96189202,0 8.16552245,0 C10.3691529,0 12.1555483,1.98137813 12.1555483,4.42553191 C12.1555483,6.8696857 10.3691529,8.85106383 8.16552245,8.85106383 Z" fill="currentColor"></path>
    </symbol>

    <!-- #btnSignIn -->
    <symbol id="btnSignIn" viewBox="0 0 18 18" xmlns="http://www.w3.org/2000/svg" stroke="currentColor" fill="none" stroke-width="2" stroke-linecap="round">
        <path d="M4 4.75V2.5C4 1.67157 4.67157 1 5.5 1H14.5C15.3284 1 16 1.67157 16 2.5V15.5C16 16.3284 15.3284 17 14.5 17H5.5C4.67157 17 4 16.3284 4 15.5V13.25" />
        <path d="M2.5 9H12" />
        <path d="M8.5 5.5L12 9L8.5 12.5" />
    </symbol>

    <!-- #btnGlobe -->
    <symbol id="btnGlobe" viewBox="0 0 18 18" xmlns="http://www.w3.org/2000/svg">
        <path d="M8.991 0C4.023 0 0 4.032 0 9C0 13.968 4.023 18 8.991 18C13.968 18 18 13.968 18 9C18 4.032 13.968 0 8.991 0ZM15.228 5.4H12.573C12.285 4.275 11.871 3.195 11.331 2.196C12.987 2.763 14.364 3.915 15.228 5.4ZM9 1.836C9.747 2.916 10.332 4.113 10.719 5.4H7.281C7.668 4.113 8.253 2.916 9 1.836ZM2.034 10.8C1.89 10.224 1.8 9.621 1.8 9C1.8 8.379 1.89 7.776 2.034 7.2H5.076C5.004 7.794 4.95 8.388 4.95 9C4.95 9.612 5.004 10.206 5.076 10.8H2.034ZM2.772 12.6H5.427C5.715 13.725 6.129 14.805 6.669 15.804C5.013 15.237 3.636 14.094 2.772 12.6ZM5.427 5.4H2.772C3.636 3.906 5.013 2.763 6.669 2.196C6.129 3.195 5.715 4.275 5.427 5.4ZM9 16.164C8.253 15.084 7.668 13.887 7.281 12.6H10.719C10.332 13.887 9.747 15.084 9 16.164ZM11.106 10.8H6.894C6.813 10.206 6.75 9.612 6.75 9C6.75 8.388 6.813 7.785 6.894 7.2H11.106C11.187 7.785 11.25 8.388 11.25 9C11.25 9.612 11.187 10.206 11.106 10.8ZM11.331 15.804C11.871 14.805 12.285 13.725 12.573 12.6H15.228C14.364 14.085 12.987 15.237 11.331 15.804ZM12.924 10.8C12.996 10.206 13.05 9.612 13.05 9C13.05 8.388 12.996 7.794 12.924 7.2H15.966C16.11 7.776 16.2 8.379 16.2 9C16.2 9.621 16.11 10.224 15.966 10.8H12.924Z" fill="currentColor" />
    </symbol>

    <!-- #btnEn -->
    <symbol id="btnEn" viewBox="0 0 16 16" xmlns="http://www.w3.org/2000/svg">
        <path d="M8,16 C3.581722,16 0,12.418278 0,8 C0,3.581722 3.581722,0 8,0 C12.418278,0 16,3.581722 16,8 C16,12.418278 12.418278,16 8,16 Z" fill="#002781"></path>
        <path d="M6.22222222,15.8017632 L6.22222222,11.6106667 L2.90144044,14.1650744 C1.98305296,13.4047052 1.2373778,12.4430592 0.732019756,11.3477412 L2.77288889,9.77777778 L0.198236821,9.77777778 C0.0684990579,9.20602423 0,8.61101152 0,8 C0,7.38898848 0.0684990579,6.79397577 0.198236821,6.22222222 L2.77288889,6.22222222 L0.731962973,4.65238183 C1.23732194,3.55701283 1.98301856,2.59532329 2.90144044,1.8349256 L6.22222222,4.38933333 L6.22222222,0.198236821 C6.79397577,0.0684990579 7.38898848,0 8,0 C8.61101152,0 9.20602423,0.0684990579 9.77777778,0.198236821 L9.77777778,4.38933333 L13.0985596,1.8349256 C14.0169814,2.59532329 14.7626781,3.55701283 15.268037,4.65238183 L13.2271111,6.22222222 L15.8017632,6.22222222 C15.9315009,6.79397577 16,7.38898848 16,8 C16,8.61101152 15.9315009,9.20602423 15.8017632,9.77777778 L13.2271111,9.77777778 L15.2679802,11.3477412 C14.7626222,12.4430592 14.016947,13.4047052 13.0985596,14.1650744 L9.77777778,11.6106667 L9.77777778,15.8017632 C9.20602423,15.9315009 8.61101152,16 8,16 C7.38898848,16 6.79397577,15.9315009 6.22222222,15.8017632 Z" fill="#FFFFFF" fill-rule="nonzero"></path>
        <path d="M15.9511744,8.88888889 L8.88888889,8.88888889 L8.88888889,15.9511744 C8.59703658,15.9834371 8.30045253,16 8,16 C7.69954747,16 7.40296342,15.9834371 7.11111111,15.9511744 L7.11111111,8.88888889 L0.0488255803,8.88888889 C0.0165629438,8.59703658 0,8.30045253 0,8 C0,7.69954747 0.0165629438,7.40296342 0.0488255803,7.11111111 L7.11111111,7.11111111 L7.11111111,0.0488255803 C7.40296342,0.0165629438 7.69954747,0 8,0 C8.30045253,0 8.59703658,0.0165629438 8.88888889,0.0488255803 L8.88888889,7.11111111 L15.9511744,7.11111111 C15.9834371,7.40296342 16,7.69954747 16,8 C16,8.30045253 15.9834371,8.59703658 15.9511744,8.88888889 Z" fill="#D10D24" fill-rule="nonzero"></path>
        <path d="M14.3413142,3.12208338 C14.5221795,3.35686013 14.6902982,3.60196286 14.8446344,3.85635564 L11.7688889,6.22222222 L10.3111111,6.22222222 L14.3413142,3.12208338 Z" fill="#D10D24"></path>
        <path d="M14.8446344,12.1436444 C14.6902982,12.3980371 14.5221795,12.6431399 14.3413142,12.8779166 L10.3111111,9.77777778 L11.7688889,9.77777778 L14.8446344,12.1436444 Z" fill="#D10D24"></path>
        <path d="M1.65868575,12.8779166 C1.47782052,12.6431399 1.30970184,12.3980371 1.15536564,12.1436444 L4.23111111,9.77777778 L5.68888889,9.77777778 L1.65868575,12.8779166 Z" fill="#D10D24"></path>
        <path d="M1.15536564,3.85635564 C1.30970184,3.60196286 1.47782052,3.35686013 1.65868575,3.12208338 L5.68888889,6.22222222 L4.23111111,6.22222222 L1.15536564,3.85635564 Z" fill="#D10D24"></path>
    </symbol>

    <!-- #btnArrow -->
    <symbol id="btnArrow" viewBox="0 0 20 20" xmlns="http://www.w3.org/2000/svg">
        <g stroke="currentColor"  fill="none"  stroke-linejoin="round">
            <path d="M3,8 L13.5,8"></path>
            <polyline points="10.5 5 13.5 8 10.5 11"></polyline>
        </g>
    </symbol>

     <!-- #btnArrowMagazine -->
    <symbol id="btnArrowMagazine" viewBox="0 0 7 11" xmlns="http://www.w3.org/2000/svg">
        <g id="Magazin-✅" stroke="none" stroke-width="1" fill="none" fill-rule="evenodd">
            <g id="Magazin---Kategorieübersicht" transform="translate(-826.000000, -2799.000000)" fill="#0077FF">
                <g id="Pagination" transform="translate(526.000000, 2786.000000)">
                    <path d="M305.898785,17.9456596 L301.15434,13.2012153 C301.027257,13.0741319 300.857812,13 300.677778,13 C300.307118,13 300,13.3071181 300,13.6777778 L300,23.1666665 C300,23.5373262 300.307118,23.8444443 300.677778,23.8444443 C300.857812,23.8444443 301.027257,23.7703123 301.15434,23.643229 L305.898785,18.8987846 C306.025868,18.7717013 306.1,18.6022569 306.1,18.4222221 C306.1,18.2421874 306.025868,18.072743 305.898785,17.9456596 Z" id="&gt;"></path>
                </g>
            </g>
        </g>
    </symbol>

    <!-- #btnCalculator -->
    <symbol id="btnCalculator" viewBox="0 0 16 16" xmlns="http://www.w3.org/2000/svg">
        <path d="M12.75,1 C13.437,1 14,1.562 14,2.25 L14,13.75 C14,14.438 13.437,15 12.75,15 L3.25,15 C2.562,15 2,14.438 2,13.75 L2,2.25 C2,1.562 2.562,1 3.25,1 L12.75,1 Z M12,5 L12,4 C12,3.45 11.55,3 11,3 L5,3 C4.45,3 4,3.45 4,4 L4,5 C4,5.55 4.45,6 5,6 L11,6 C11.55,6 12,5.55 12,5 Z M12,12 L12,9 C12,8.45 11.55,8 11,8 C10.45,8 10,8.45 10,9 L10,12 C10,12.55 10.45,13 11,13 C11.55,13 12,12.55 12,12 Z M8,10 C8.552,10 9,9.553 9,9 C9,8.447 8.552,8 8,8 C7.448,8 7,8.447 7,9 C7,9.553 7.448,10 8,10 Z M8,13 C8.552,13 9,12.553 9,12 C9,11.447 8.552,11 8,11 C7.448,11 7,11.447 7,12 C7,12.553 7.448,13 8,13 Z M5,10 C5.552,10 6,9.553 6,9 C6,8.447 5.552,8 5,8 C4.448,8 4,8.447 4,9 C4,9.553 4.448,10 5,10 Z M5,13 C5.552,13 6,12.553 6,12 C6,11.447 5.552,11 5,11 C4.448,11 4,11.447 4,12 C4,12.553 4.448,13 5,13 Z" fill="currentColor" stroke="none" fill-rule="nonzero"></path>
    </symbol>

    <!-- #btnStar -->
    <symbol id="btnStar" viewBox="0 0 16 16" xmlns="http://www.w3.org/2000/svg">
        <path d="M14.5008015,5.9606993 L10.3708172,5.35885549 L8.52282418,1.60260076 C8.41388609,1.41521828 8.21398784,1.3 7.99782618,1.3 C7.78166451,1.3 7.58176626,1.41521828 7.47282817,1.60260076 L5.62950184,5.35885549 L1.49951754,5.9606993 C1.27972879,5.99273247 1.09713317,6.14724826 1.02853737,6.35925143 C0.959941565,6.5712546 1.01724827,6.8039585 1.1763521,6.959479 L4.16534074,9.88673486 L3.45834343,14.0153365 C3.42068655,14.2351366 3.51073108,14.4573176 3.69056452,14.5883323 C3.87039796,14.719347 4.10877935,14.7364352 4.30534021,14.6324021 L8.0001595,12.679337 L11.6949788,14.6288894 C11.7782976,14.6732995 11.8713064,14.6962338 11.9656444,14.6956308 C12.1377139,14.696013 12.3011734,14.6201304 12.4123004,14.4882801 C12.5234274,14.3564298 12.5708837,14.1820645 12.5419756,14.0118238 L11.8349783,9.88322216 L14.8239669,6.95596629 C14.9830707,6.80044579 15.0403774,6.56774189 14.9717816,6.35573872 C14.9031858,6.14373556 14.7205902,5.98921977 14.5008015,5.95718659 L14.5008015,5.9606993 Z" stroke="none" fill="currentColor"></path>
    </symbol>

    <!-- #btnQuotes -->
    <symbol id="btnQuotes" viewBox="0 0 16 16" xmlns="http://www.w3.org/2000/svg">
        <path d="M3.726,14.062 C3.543,14.244 3.379,14.334 3.233,14.334 C3.087,14.334 2.94,14.261 2.794,14.117 L2.47,13.724 C2.372,13.605 2.37,13.434 2.464,13.312 C3.074,12.527 3.486,11.889 3.699,11.4 C4.046,10.603 4.219,9.825 4.219,9.064 C4.219,8.81 4.183,8.611 4.109,8.466 C3.744,8.539 3.452,8.575 3.233,8.575 C2.32,8.575 1.553,8.258 0.932,7.625 C0.31,6.991 0,6.239 0,5.37 C0,4.391 0.329,3.585 0.986,2.952 C1.644,2.318 2.466,2 3.452,2 C4.584,2 5.489,2.435 6.164,3.305 C6.84,4.174 7.178,5.243 7.178,6.51 C7.178,7.959 6.858,9.354 6.219,10.694 C5.58,12.034 4.749,13.157 3.726,14.062 M12.548,14.062 C12.365,14.244 12.201,14.334 12.055,14.334 C11.909,14.334 11.763,14.261 11.616,14.117 L11.292,13.724 C11.194,13.605 11.191,13.434 11.286,13.312 C11.896,12.527 12.308,11.889 12.52,11.4 C12.868,10.603 13.041,9.825 13.041,9.064 C13.041,8.81 13.004,8.611 12.932,8.466 C12.566,8.539 12.274,8.575 12.055,8.575 C11.142,8.575 10.374,8.258 9.753,7.625 C9.132,6.991 8.822,6.239 8.822,5.37 C8.822,4.391 9.151,3.585 9.808,2.952 C10.466,2.318 11.288,2 12.274,2 C13.406,2 14.31,2.435 14.986,3.305 C15.662,4.174 16,5.243 16,6.51 C16,7.959 15.68,9.354 15.041,10.694 C14.402,12.034 13.571,13.157 12.548,14.062" fill="currentColor" stroke="none" fill-rule="nonzero"></path>
    </symbol>

    <!-- #btnFlame -->
    <symbol id="btnFlame" viewBox="0 0 16 16" xmlns="http://www.w3.org/2000/svg">
        <path d="M8.038,14.0000261 C7.137,14.0000261 5.159,13.2480261 5.159,11.1270261 C5.159,10.5390261 5.348,9.89602613 5.682,9.28802613 C5.742,9.17602613 5.902,9.16502613 5.979,9.26702613 C6.216,9.58002613 6.84,10.1540261 6.801,9.80202613 C6.664,8.63102613 6.914,7.79202613 8.029,7.09402613 C8.146,7.02102613 8.31,7.07602613 8.348,7.20802613 C8.763,8.66702613 10.841,9.15702613 10.841,11.4160261 C10.841,13.2380261 9.156,14.0000261 8.038,14.0000261 M8.745,0.231026133 C8.699,0.0320261334 8.458,-0.0609738666 8.283,0.0430261334 C5.545,1.67002613 4.931,3.62302613 5.251,6.37602613 C5.271,6.55402613 5.084,6.68902613 4.932,6.59602613 C4.246,6.17402613 3.719,5.62802613 3.319,5.08702613 C3.169,4.88402613 2.856,4.89702613 2.733,5.11802613 C1.94,6.53902613 1.49,8.04202613 1.49,9.41702613 C1.49,14.2770261 6.02,16.0000261 8.087,16.0000261 C10.649,16.0000261 14.51,14.2540261 14.51,10.0780261 C14.51,4.79702613 9.554,3.73702613 8.745,0.231026133" stroke="none" fill="currentColor" fill-rule="nonzero"></path>
    </symbol>

    <!-- #btnChart -->
    <symbol id="btnChart" viewBox="0 0 16 16" xmlns="http://www.w3.org/2000/svg">
        <path d="M9.00978597,0.503891943 L9.00978597,6.41499265 C9.00978597,6.73337511 9.26711016,6.9906842 9.58451004,6.9906842 L15.4969588,6.9906842 C15.7813171,6.9906842 16.0206186,6.75039555 15.9985908,6.46705519 C15.7452717,3.0139071 12.9867964,0.255593675 9.53244444,0.00128819058 C9.24908745,-0.019737066 9.00978597,0.219550378 9.00978597,0.503891943 M8.00852453,1.50609584 L8.00852453,7.42020016 C8.00852453,7.73858261 8.26184368,7.9918869 8.9777456,7.9918869 L14.4946961,7.9918869 C14.7790544,7.9918869 15.0193571,8.23217554 14.9973294,8.51651711 C14.7269888,12.1739106 11.6481099,15.0513671 7.90839839,14.9993046 C4.18670962,14.947242 1.05276132,11.8134776 1.00069572,8.09100596 C0.948630128,4.3515139 3.82525424,1.27381682 7.48386354,1.00249089 C7.76822179,0.981465629 8.00852453,1.22175428 8.00852453,1.50609584" fill="currentColor" stroke="none"></path>
    </symbol>

    <!-- #btnDocument -->
    <symbol id="btnDocument" viewBox="0 0 16 16" xmlns="http://www.w3.org/2000/svg">
        <path d="M11,5 L5,5 C4.45,5 4,4.55 4,4 C4,3.45 4.45,3 5,3 L11,3 C11.55,3 12,3.45 12,4 C12,4.55 11.55,5 11,5 M11,9 L5,9 C4.45,9 4,8.55 4,8 C4,7.45 4.45,7 5,7 L11,7 C11.55,7 12,7.45 12,8 C12,8.55 11.55,9 11,9 M9,13 L5,13 C4.45,13 4,12.55 4,12 C4,11.45 4.45,11 5,11 L9,11 C9.55,11 10,11.45 10,12 C10,12.55 9.55,13 9,13 M12.75,1 L3.25,1 C2.56,1 2,1.49 2,2.09375 L2,13.90625 C2,14.51 2.56,15 3.25,15 L12.75,15 C13.44,15 14,14.51 14,13.90625 L14,2.09375 C14,1.49 13.44,1 12.75,1"  fill="currentColor" stroke="none" fill-rule="nonzero"></path>
    </symbol>

    <!-- #btnShield -->
    <symbol id="btnShield" viewBox="0 0 16 16" xmlns="http://www.w3.org/2000/svg">
        <path d="M1.0303,3.006 C1.0443,2.514 1.3283,2.064 1.7863,1.804 C3.9043,0.603 5.9293,-5.41788836e-14 8.0013,-5.41788836e-14 C10.0733,-5.41788836e-14 12.1863,0.603 14.2123,1.809 C14.6453,2.068 14.9163,2.501 14.9353,2.972 C15.1073,7.307 14.9353,9.978 14.4263,10.976 C13.9043,11.991 11.8653,13.63 8.3883,15.884 C8.2713,15.961 8.1363,15.995 8.0013,15.995 C7.8663,15.995 7.7303,15.961 7.6183,15.884 C4.0353,13.541 2.0473,11.906 1.5713,10.976 C1.1043,10.067 0.9233,7.409 1.0303,3.006 Z M7.5,10.2614 C7.523,10.2614 7.547,10.2604 7.571,10.2584 C7.86,10.2384 8.126,10.0934 8.3,9.8614 L11.3,5.8614 C11.632,5.4194 11.542,4.7924 11.1,4.4614 C10.658,4.1304 10.031,4.2204 9.7,4.6614 L7.392,7.7394 L6.207,6.5544 C5.816,6.1634 5.184,6.1634 4.793,6.5544 C4.402,6.9454 4.402,7.5774 4.793,7.9684 L6.793,9.9684 C6.981,10.1574 7.235,10.2614 7.5,10.2614 Z" stroke="none" fill="currentColor" fill-rule="nonzero"></path>
    </symbol>

    <!-- #btnSwitch -->
    <symbol id="btnSwitch" viewBox="0 0 16 16" xmlns="http://www.w3.org/2000/svg">
        <path d="M5,11 C3.3,11 2,9.7 2,8 C2,6.3 3.3,5 5,5 C6.7,5 8,6.3 8,8 C8,9.7 6.7,11 5,11 M11,3 L5,3 C2.2,3 0,5.2 0,8 C0,10.8 2.2,13 5,13 L11,13 C13.8,13 16,10.8 16,8 C16,5.2 13.8,3 11,3" stroke="none" fill="currentColor" fill-rule="nonzero"></path>
    </symbol>


         <symbol id="ctaArrow" viewBox="0 0 402 42" xmlns="http://www.w3.org/2000/svg">
            <path fill-rule="evenodd" clip-rule="evenodd" d="M397 23.5002H0V18.5002H397V23.5002Z" />
            <path d="M398.506 17.6775L401.335 20.5059L380.828 41.012L378 38.1836L398.506 17.6775Z" />
            <path d="M401.335 20.5059L398.506 23.3345L378 2.82843L380.828 0L401.335 20.5059Z" />
        </symbol>


</svg>
