<svg xmlns="http://www.w3.org/2000/svg" style="display: none;">

    <!-- #iconTrustpilot5 -->
    <symbol id="iconTrustpilot5" viewBox="0 0 512 96" xmlns="http://www.w3.org/2000/svg">
        <rect y="0" fill="#00B67A" width="96" height="96"/>
        <rect x="104" y="0" fill="#00B67A" width="96" height="96"/>
        <rect x="208" y="0" fill="#00B67A" width="96" height="96"/>
        <rect x="312" y="0" fill="#00B67A" width="96" height="96"/>
        <rect x="416" y="0" fill="#00B67A" width="96" height="96"/>
        <path fill="#fff" d="M48,64.7L62.6,61l6.1,18.8L48,64.7z M81.6,40.4H55.9L48,16.2l-7.9,24.2H14.4l20.8,15l-7.9,24.2l20.8-15 l12.8-9.2L81.6,40.4L81.6,40.4L81.6,40.4L81.6,40.4z"/>
        <path fill="#fff" d="M152,64.7l14.6-3.7l6.1,18.8L152,64.7z M185.6,40.4h-25.7L152,16.2l-7.9,24.2h-25.7l20.8,15l-7.9,24.2l20.8-15 l12.8-9.2L185.6,40.4L185.6,40.4L185.6,40.4L185.6,40.4z"/>
        <path fill="#fff" d="M256,64.7l14.6-3.7l6.1,18.8L256,64.7z M289.6,40.4h-25.7L256,16.2l-7.9,24.2h-25.7l20.8,15l-7.9,24.2l20.8-15 l12.8-9.2L289.6,40.4L289.6,40.4L289.6,40.4L289.6,40.4z"/>
        <path fill="#fff" d="M360,64.7l14.6-3.7l6.1,18.8L360,64.7z M393.6,40.4h-25.7L360,16.2l-7.9,24.2h-25.7l20.8,15l-7.9,24.2l20.8-15 l12.8-9.2L393.6,40.4L393.6,40.4L393.6,40.4L393.6,40.4z"/>
        <path fill="#fff" d="M464,64.7l14.6-3.7l6.1,18.8L464,64.7z M497.6,40.4h-25.7L464,16.2l-7.9,24.2h-25.7l20.8,15l-7.9,24.2l20.8-15 l12.8-9.2L497.6,40.4L497.6,40.4L497.6,40.4L497.6,40.4z"/>
    </symbol>

    <!-- #iconUploadLink -->
    <symbol id="iconUploadLink" viewBox="0 0 16 32" xmlns="http://www.w3.org/2000/svg">
        <path d="M1,12 L1,24 C1,27.8659932 4.1340068,31 8,31 L8,31 C11.8659932,31 15,27.8659932 15,24 L15,6 C15,3.2385763 12.7614237,1 10,1 L10,1 C7.2385763,1 5,3.2385763 5,6 L5,24 C5,25.6568542 6.3431458,27 8,27 L8,27 C9.6568542,27 11,25.6568542 11,24 L11,11" stroke="currentColor" stroke-width="2" fill="none"></path>
    </symbol>

    <!-- #iconTrustpilotLogo -->
    <symbol id="iconTrustpilotLogo" viewBox="0 0 1132.8 278.2" xmlns="http://www.w3.org/2000/svg">
        <path fill="#191919" d="M297.7,98.6h114.7V120h-45.1v120.3h-24.8V120h-44.9V98.6z M407.5,137.7h21.2v19.8h0.4c0.7-2.8,2-5.5,3.9-8.1 c1.9-2.6,4.2-5.1,6.9-7.2c2.7-2.2,5.7-3.9,9-5.3c3.3-1.3,6.7-2,10.1-2c2.6,0,4.5,0.1,5.5,0.2c1,0.1,2,0.3,3.1,0.4v21.8 c-1.6-0.3-3.2-0.5-4.9-0.7c-1.7-0.2-3.3-0.3-4.9-0.3c-3.8,0-7.4,0.8-10.8,2.3c-3.4,1.5-6.3,3.8-8.8,6.7c-2.5,3-4.5,6.6-6,11 c-1.5,4.4-2.2,9.4-2.2,15.1v48.8h-22.6V137.7z M571.5,240.3h-22.2V226h-0.4c-2.8,5.2-6.9,9.3-12.4,12.4 c-5.5,3.1-11.1,4.7-16.8,4.7c-13.5,0-23.3-3.3-29.3-10c-6-6.7-9-16.8-9-30.3v-65.1H504v62.9c0,9,1.7,15.4,5.2,19.1 c3.4,3.7,8.3,5.6,14.5,5.6c4.8,0,8.7-0.7,11.9-2.2c3.2-1.5,5.8-3.4,7.7-5.9c2-2.4,3.4-5.4,4.3-8.8c0.9-3.4,1.3-7.1,1.3-11.1v-59.5 h22.6V240.3z M610,207.4c0.7,6.6,3.2,11.2,7.5,13.9c4.4,2.6,9.6,4,15.7,4c2.1,0,4.5-0.2,7.2-0.5c2.7-0.3,5.3-1,7.6-1.9 c2.4-0.9,4.3-2.3,5.9-4.1c1.5-1.8,2.2-4.1,2.1-7c-0.1-2.9-1.2-5.3-3.2-7.1c-2-1.9-4.5-3.3-7.6-4.5c-3.1-1.1-6.6-2.1-10.6-2.9 c-4-0.8-8-1.7-12.1-2.6c-4.2-0.9-8.3-2.1-12.2-3.4c-3.9-1.3-7.4-3.1-10.5-5.4c-3.1-2.2-5.6-5.1-7.4-8.6c-1.9-3.5-2.8-7.8-2.8-13 c0-5.6,1.4-10.2,4.1-14c2.7-3.8,6.2-6.8,10.3-9.1c4.2-2.3,8.8-3.9,13.9-4.9c5.1-0.9,10-1.4,14.6-1.4c5.3,0,10.4,0.6,15.2,1.7 c4.8,1.1,9.2,2.9,13.1,5.5c3.9,2.5,7.1,5.8,9.7,9.8c2.6,4,4.2,8.9,4.9,14.6h-23.6c-1.1-5.4-3.5-9.1-7.4-10.9 c-3.9-1.9-8.4-2.8-13.4-2.8c-1.6,0-3.5,0.1-5.7,0.4c-2.2,0.3-4.2,0.8-6.2,1.5c-1.9,0.7-3.5,1.8-4.9,3.2c-1.3,1.4-2,3.2-2,5.5 c0,2.8,1,5,2.9,6.7c1.9,1.7,4.4,3.1,7.5,4.3c3.1,1.1,6.6,2.1,10.6,2.9c4,0.8,8.1,1.7,12.3,2.6c4.1,0.9,8.1,2.1,12.1,3.4 c4,1.3,7.5,3.1,10.6,5.4c3.1,2.3,5.6,5.1,7.5,8.5c1.9,3.4,2.9,7.7,2.9,12.7c0,6.1-1.4,11.2-4.2,15.5c-2.8,4.2-6.4,7.7-10.8,10.3 c-4.4,2.6-9.4,4.6-14.8,5.8c-5.4,1.2-10.8,1.8-16.1,1.8c-6.5,0-12.5-0.7-18-2.2c-5.5-1.5-10.3-3.7-14.3-6.6c-4-3-7.2-6.7-9.5-11.1 c-2.3-4.4-3.5-9.7-3.7-15.8H610z M684.6,137.7h17.1v-30.8h22.6v30.8h20.4v16.9h-20.4v54.8c0,2.4,0.1,4.4,0.3,6.2 c0.2,1.7,0.7,3.2,1.4,4.4c0.7,1.2,1.8,2.1,3.3,2.7c1.5,0.6,3.4,0.9,6,0.9c1.6,0,3.2,0,4.8-0.1c1.6-0.1,3.2-0.3,4.8-0.7v17.5 c-2.5,0.3-5,0.5-7.3,0.8c-2.4,0.3-4.8,0.4-7.3,0.4c-6,0-10.8-0.6-14.4-1.7c-3.6-1.1-6.5-2.8-8.5-5c-2.1-2.2-3.4-4.9-4.2-8.2 c-0.7-3.3-1.2-7.1-1.3-11.3v-60.5h-17.1V137.7z M760.7,137.7h21.4v13.9h0.4c3.2-6,7.6-10.2,13.3-12.8c5.7-2.6,11.8-3.9,18.5-3.9 c8.1,0,15.1,1.4,21.1,4.3c6,2.8,11,6.7,15,11.7c4,5,6.9,10.8,8.9,17.4c2,6.6,3,13.7,3,21.2c0,6.9-0.9,13.6-2.7,20 c-1.8,6.5-4.5,12.2-8.1,17.2c-3.6,5-8.2,8.9-13.8,11.9c-5.6,3-12.1,4.5-19.7,4.5c-3.3,0-6.6-0.3-9.9-0.9c-3.3-0.6-6.5-1.6-9.5-2.9 c-3-1.3-5.9-3-8.4-5.1c-2.6-2.1-4.7-4.5-6.5-7.2h-0.4v51.2h-22.6V137.7z M839.7,189.1c0-4.6-0.6-9.1-1.8-13.5 c-1.2-4.4-3-8.2-5.4-11.6c-2.4-3.4-5.4-6.1-8.9-8.1c-3.6-2-7.7-3.1-12.3-3.1c-9.5,0-16.7,3.3-21.5,9.9c-4.8,6.6-7.2,15.4-7.2,26.4 c0,5.2,0.6,10,1.9,14.4c1.3,4.4,3.1,8.2,5.7,11.4c2.5,3.2,5.5,5.7,9,7.5c3.5,1.9,7.6,2.8,12.2,2.8c5.2,0,9.5-1.1,13.1-3.2 c3.6-2.1,6.5-4.9,8.8-8.2c2.3-3.4,4-7.2,5-11.5C839.2,198,839.7,193.6,839.7,189.1z M879.6,98.6h22.6V120h-22.6V98.6z M879.6,137.7h22.6v102.6h-22.6V137.7z M922.4,98.6H945v141.7h-22.6V98.6z M1014.3,243.1c-8.2,0-15.5-1.4-21.9-4.1 c-6.4-2.7-11.8-6.5-16.3-11.2c-4.4-4.8-7.8-10.5-10.1-17.1c-2.3-6.6-3.5-13.9-3.5-21.8c0-7.8,1.2-15,3.5-21.6 c2.3-6.6,5.7-12.3,10.1-17.1c4.4-4.8,9.9-8.5,16.3-11.2c6.4-2.7,13.7-4.1,21.9-4.1c8.2,0,15.5,1.4,21.9,4.1 c6.4,2.7,11.8,6.5,16.3,11.2c4.4,4.8,7.8,10.5,10.1,17.1c2.3,6.6,3.5,13.8,3.5,21.6c0,7.9-1.2,15.2-3.5,21.8 c-2.3,6.6-5.7,12.3-10.1,17.1c-4.4,4.8-9.9,8.5-16.3,11.2C1029.8,241.7,1022.5,243.1,1014.3,243.1z M1014.3,225.2 c5,0,9.4-1.1,13.1-3.2c3.7-2.1,6.7-4.9,9.1-8.3c2.4-3.4,4.1-7.3,5.3-11.6c1.1-4.3,1.7-8.7,1.7-13.2c0-4.4-0.6-8.7-1.7-13.1 c-1.1-4.4-2.9-8.2-5.3-11.6c-2.4-3.4-5.4-6.1-9.1-8.2c-3.7-2.1-8.1-3.2-13.1-3.2c-5,0-9.4,1.1-13.1,3.2c-3.7,2.1-6.7,4.9-9.1,8.2 c-2.4,3.4-4.1,7.2-5.3,11.6c-1.1,4.4-1.7,8.7-1.7,13.1c0,4.5,0.6,8.9,1.7,13.2c1.1,4.3,2.9,8.2,5.3,11.6c2.4,3.4,5.4,6.2,9.1,8.3 C1004.9,224.2,1009.3,225.2,1014.3,225.2z M1072.7,137.7h17.1v-30.8h22.6v30.8h20.4v16.9h-20.4v54.8c0,2.4,0.1,4.4,0.3,6.2 c0.2,1.7,0.7,3.2,1.4,4.4c0.7,1.2,1.8,2.1,3.3,2.7c1.5,0.6,3.4,0.9,6,0.9c1.6,0,3.2,0,4.8-0.1c1.6-0.1,3.2-0.3,4.8-0.7v17.5 c-2.5,0.3-5,0.5-7.3,0.8c-2.4,0.3-4.8,0.4-7.3,0.4c-6,0-10.8-0.6-14.4-1.7c-3.6-1.1-6.5-2.8-8.5-5c-2.1-2.2-3.4-4.9-4.2-8.2 c-0.7-3.3-1.2-7.1-1.3-11.3v-60.5h-17.1V137.7z"/>
        <polygon fill="#00B67A" points="271.3,98.6 167.7,98.6 135.7,0 103.6,98.6 0,98.5 83.9,159.5 51.8,258 135.7,197.1 219.5,258 187.5,159.5 271.3,98.6 271.3,98.6 271.3,98.6"/>
        <polygon fill="#005128" points="194.7,181.8 187.5,159.5 135.7,197.1"/>
    </symbol>

    <!-- #chatIconMobile -->
    <symbol xmlns="http://www.w3.org/2000/svg" viewBox="0 0 18 16" id="chatIconMobile" fill="currentColor">
        <path stroke="none" fill-rule="evenodd" d="M16.0220574,12.1231451 C15.8100408,12.3721942 15.4722198,12.8455178 15.3750001,13.424155 C15.2729581,14.0314943 15.5053598,14.8265017 16.125,15.2886209 C17.1463115,16.0503012 16.125,16.4073005 13.125,15.2886209 C12.3949835,15.0164027 11.9980446,14.766265 11.8153088,14.5435807 C10.9296338,14.785076 9.98322955,14.9157277 9,14.9157277 C4.02943725,14.9157277 0,11.5767283 0,7.45786386 C0,3.33899939 4.02943725,0 9,0 C13.9705627,0 18,3.33899939 18,7.45786386 C18,9.2234452 17.2596027,10.8457286 16.0220574,12.1231451 Z"></path>
    </symbol>

    <!-- #teleIconMobile -->
    <symbol xmlns="http://www.w3.org/2000/svg" viewBox="0 0 15 18" id="teleIconMobile" fill="currentColor">
        <path stroke="none" fill-rule="evenodd" d="M6.96932856,15.6962651 C5.43761571,14.6979347 4.15403159,13.4354315 3.06347396,11.9746911 C1.84906152,10.3480164 0.917804435,8.57764188 0.396325588,6.60602889 C0.0647329437,5.3523079 -0.0837697571,4.08215526 0.0475582574,2.78401301 C0.111853396,2.14845442 0.400617149,1.63892299 0.90678444,1.27932879 C1.3121426,0.991311851 1.74866097,0.730328268 2.2044992,0.534610923 C2.70820392,0.318399148 3.24754231,0.183034056 3.77558346,0.026712572 C4.03280686,-0.049439498 4.20523298,0.0382252421 4.32307466,0.276944683 C4.94089788,1.52825597 5.55759207,2.78012118 6.17136077,4.03341274 C6.34421866,4.38643843 6.23620605,4.72629385 5.89256316,4.92975415 C5.4776012,5.17540906 5.05999178,5.41659526 4.64344293,5.65960778 C4.21228368,5.91110458 4.06871582,6.27139893 4.23706377,6.73836576 C4.32261167,6.97564193 4.39795281,8.16654549 5.58545835,9.80100664 C6.77296389,11.4354678 7.91913119,11.9087601 8.10841596,12.0542521 C8.47039971,12.3325269 8.87303269,12.3066713 9.21679165,12.0011849 C9.57725118,11.6808348 9.93597294,11.3585512 10.2964325,11.0382011 C10.6298639,10.7419159 10.9670927,10.7501289 11.2898467,11.0637639 C12.2678984,12.0142027 13.2454844,12.9651462 14.2222939,13.9168537 C14.4603419,14.1487731 14.4777767,14.3009376 14.3030626,14.5885776 C13.8765359,15.2907527 13.3966863,15.9526656 12.7732034,16.4941427 C12.5401441,16.6965292 12.2821362,16.8772239 12.0144694,17.0312441 C11.557708,17.2941507 11.1568098,17.3448473 10.521827,17.235753 C9.30573796,16.9937023 8.0992052,16.4327239 6.96932856,15.6962651 Z"></path>
    </symbol>

    <!-- #mailIconMobile -->
    <symbol xmlns="http://www.w3.org/2000/svg" viewBox="0 0 18 14" id="mailIconMobile" fill="currentColor">
        <path stroke="none" fill-rule="evenodd" d="M8.99962548,7.7 C7.53676501,7.7 0,2.0237 0,2.0237 L0,1.4 C0,0.6272 0.67113312,0 1.49956306,0 L16.4996879,0 C17.3288669,0 18,0.6272 18,1.4 L17.9880155,2.1 C17.9880155,2.1 10.532895,7.7 8.99962548,7.7 Z M8.99962548,9.625 C10.6033041,9.625 17.9880155,4.2 17.9880155,4.2 L18,12.6 C18,13.3728 17.3288669,14 16.4996879,14 L1.49956306,14 C0.671882152,14 0,13.3728 0,12.6 L0.01198452,4.2 C0.0112354875,4.2 7.53676501,9.625 8.99962548,9.625 Z"></path>
    </symbol>

    <!-- #iconCheckmark -->
    <symbol xmlns="http://www.w3.org/2000/svg" viewBox="0 0 20 20" id="iconCheckmark">
        <g fill="currentColor" stroke="none">
            <circle opacity="0.15" cx="10" cy="10" r="10"></circle>
            <polygon points="6.15384615 9.6 5 10.8 8.07692308 14 15 7.2 13.8461538 6 8.07692308 11.6"></polygon>
        </g>
    </symbol>

    <!-- #iconCheckmarkFull -->
    <symbol xmlns="http://www.w3.org/2000/svg" viewBox="0 0 20 20" id="iconCheckmarkFull">
        <g fill="currentColor" stroke="none">
            <circle cx="10" cy="10" r="10"></circle>
            <polygon fill="#ffffff" points="6.15384615 9.6 5 10.8 8.07692308 14 15 7.2 13.8461538 6 8.07692308 11.6"></polygon>
        </g>
    </symbol>

    <!-- #iconSearch -->
    <symbol xmlns="http://www.w3.org/2000/svg" viewBox="0 0 20 20" id="iconSearch">
        <g stroke="currentColor" fill="none" stroke-linecap="round" stroke-linejoin="round" stroke-width="2">
            <circle cx="9.5" cy="9.5" r="6"></circle>
            <path d="M17.5,17.5 L13.742,13.742"></path>
        </g>
    </symbol>

    <!-- #iconFilter -->
    <symbol xmlns="http://www.w3.org/2000/svg" viewBox="0 0 20 20" id="iconFilter" stroke="currentColor" fill="none">
        <path d="M1,4 L19,4" stroke-width="2"></path>
        <path d="M4,10 L16,10" stroke-width="2"></path>
        <path d="M7,16 L13,16" stroke-width="2"></path>
    </symbol>

    <!-- #iconCross -->
    <symbol xmlns="http://www.w3.org/2000/svg" viewBox="0 0 20 20" id="iconCross">
        <circle fill="currentColor" fill-rule="nonzero" opacity="0.15" cx="10" cy="10" r="10"></circle>
        <path d="M7,7 L13,13" stroke="currentColor" stroke-width="1.5" stroke-linecap="round" stroke-linejoin="round"></path>
        <path d="M13,7 L7,13" stroke="currentColor" stroke-width="1.5" stroke-linecap="round" stroke-linejoin="round"></path>
    </symbol>

<!-- #iconCrossFull -->
    <symbol xmlns="http://www.w3.org/2000/svg" viewBox="0 0 20 20" id="iconCrossFull">
        <circle fill="currentColor" fill-rule="nonzero" cx="10" cy="10" r="10"></circle>
        <path d="M7,7 L13,13" stroke="#ffffff" stroke-width="1.5" stroke-linecap="round" stroke-linejoin="round"></path>
        <path d="M13,7 L7,13" stroke="#ffffff" stroke-width="1.5" stroke-linecap="round" stroke-linejoin="round"></path>
    </symbol>

    <!-- #iconAlert -->
    <symbol xmlns="http://www.w3.org/2000/svg" viewBox="0 0 20 20" id="iconAlert">
        <circle fill="currentColor" fill-rule="nonzero" opacity="0.15" cx="10" cy="10" r="10"></circle>
        <path d="M10.84,10.892 L9.16,10.892 L9.16,4.088 L10.84,4.088 L10.84,10.892 Z M8.88,14.02 C8.88,13.7213318 8.98966557,13.4646677 9.209,13.25 C9.42833443,13.0353323 9.69199846,12.928 10,12.928 C10.2986682,12.928 10.5599989,13.0306656 10.784,13.236 C11.0080011,13.4413344 11.12,13.6933318 11.12,13.992 C11.12,14.2906682 11.0103344,14.5473323 10.791,14.762 C10.5716656,14.9766677 10.3080015,15.084 10,15.084 C9.85066592,15.084 9.70833401,15.0560003 9.573,15 C9.43766599,14.9439997 9.31866718,14.8693338 9.216,14.776 C9.11333282,14.6826662 9.03166697,14.5706673 8.971,14.44 C8.91033303,14.3093327 8.88,14.1693341 8.88,14.02 Z" fill="currentColor" fill-rule="nonzero"></path>
    </symbol>

    <!-- #iconQuestion -->
    <symbol xmlns="http://www.w3.org/2000/svg" viewBox="0 0 20 20" id="iconQuestion">
        <circle fill="currentColor" fill-rule="nonzero" opacity="0.15" cx="10" cy="10" r="10"></circle>
        <path d="M6.88888868,5.65232599 C7.09116529,5.483657 7.30889032,5.32587225 7.5420703,5.178967 C7.77525029,5.03206176 8.02809226,4.9042017 8.30060381,4.795383 C8.57311535,4.6865643 8.86809765,4.60087086 9.18555956,4.5383001 C9.50302146,4.47572935 9.84435812,4.44444444 10.2095798,4.44444444 C10.7152713,4.44444444 11.1731962,4.5110949 11.5833682,4.64439781 C11.9935403,4.77770072 12.3447097,4.96813059 12.636887,5.21569313 C12.9290643,5.46325568 13.1552174,5.7611424 13.3153531,6.10936225 C13.4754887,6.45758209 13.5555553,6.84660311 13.5555553,7.27643698 C13.5555553,7.68994805 13.4951542,8.04768416 13.3743501,8.34965606 C13.253546,8.65162795 13.1018408,8.91414913 12.91923,9.13722747 C12.7366192,9.36030581 12.5357503,9.5534561 12.3166173,9.71668416 C12.0974843,9.87991221 11.889592,10.0322561 11.6929342,10.1737204 C11.4962764,10.3151847 11.3263104,10.4552867 11.1830311,10.5940305 C11.0397518,10.7327744 11.0481809,10.9424421 11.0144681,11.1111111 L10.8333333,12.2222222 L9.11392028,12.2222222 L8.95378543,10.9000816 C8.91445387,10.6389167 8.94816613,10.4117611 9.05492323,10.2186079 C9.16168033,10.0254547 9.30495745,9.84862697 9.48475888,9.68811939 C9.66456032,9.5276118 9.86542922,9.37254748 10.0873716,9.22292177 C10.309314,9.07329605 10.5172063,8.91279088 10.7110547,8.74140142 C10.9049031,8.57001197 11.0678457,8.37686167 11.1998874,8.16194474 C11.3319291,7.9470278 11.3979489,7.6926679 11.3979489,7.39885741 C11.3979489,7.0397557 11.2701233,6.75411089 11.0144681,6.54191442 C10.758813,6.32971795 10.4202856,6.22362131 9.99887603,6.22362131 C9.68984232,6.22362131 9.42997696,6.25626643 9.21927216,6.32155765 C9.00856735,6.38684887 8.82736394,6.45894018 8.67565648,6.53783374 C8.52394902,6.6167273 8.39471868,6.68881861 8.28796158,6.75410983 C8.18120448,6.81940105 8.08006769,6.85204617 7.98454818,6.85204617 C7.77103398,6.85204617 7.61090073,6.76227209 7.50414363,6.58272123 L6.88888868,5.65232599 Z" fill="currentColor" fill-rule="nonzero"></path>
        <path d="M8.88888889,14.4479276 C8.88888889,14.2946701 8.91729124,14.1495421 8.9740968,14.0125392 C9.03090235,13.8755363 9.10929284,13.7571118 9.20927062,13.6572623 C9.3092484,13.5574127 9.42626609,13.4784631 9.5603272,13.420411 C9.69438831,13.3623589 9.84094444,13.3333333 10,13.3333333 C10.1545111,13.3333333 10.2999312,13.3623589 10.4362645,13.420411 C10.5725978,13.4784631 10.6907516,13.5574127 10.7907294,13.6572623 C10.8907072,13.7571118 10.9690976,13.8755363 11.0259032,14.0125392 C11.0827088,14.1495421 11.1111111,14.2946701 11.1111111,14.4479276 C11.1111111,14.6058292 11.0827088,14.7521182 11.0259032,14.886799 C10.9690976,15.0214798 10.8907072,15.1387433 10.7907294,15.2385928 C10.6907516,15.3384424 10.5725978,15.416231 10.4362645,15.471961 C10.2999312,15.527691 10.1545111,15.5555556 10,15.5555556 C9.84094444,15.5555556 9.69438831,15.527691 9.5603272,15.471961 C9.42626609,15.416231 9.3092484,15.3384424 9.20927062,15.2385928 C9.10929284,15.1387433 9.03090235,15.0214798 8.9740968,14.886799 C8.91729124,14.7521182 8.88888889,14.6058292 8.88888889,14.4479276 Z" fill="currentColor" fill-rule="nonzero"></path>
    </symbol>

    <!-- #iconCookie -->
    <symbol xmlns="http://www.w3.org/2000/svg" viewBox="0 0 30 30" id="iconCookie">
        <path d="M17.456,10.367 L18.724,1.073 C17.512,0.747 16.314,0 14.9995,0 C13.683,0 12.483,0.751 11.269,1.075 C10.012,1.411 8.598,1.371 7.499,2.0065 C6.383,2.653 5.715,3.903 4.8095,4.8085 C3.903,5.715 2.653,6.3825 2.0075,7.498 C1.371,8.5985 1.412,10.0115 1.076,11.2685 C0.752,12.4825 0,13.6835 0,14.9995 C0,16.316 0.752,17.516 1.076,18.731 C1.412,19.987 1.371,21.401 2.0075,22.5005 C2.653,23.6165 3.903,24.2845 4.8095,25.19 C5.715,26.0955 6.3825,27.3465 7.499,27.992 C8.598,28.629 10.012,28.588 11.269,28.924 C12.483,29.249 13.683,30 14.9995,30 C16.317,30 17.517,29.249 18.732,28.924 C19.988,28.588 21.402,28.629 22.501,27.992 C23.617,27.3465 24.285,26.0955 25.1905,25.19 C26.097,24.2845 27.347,23.617 27.9925,22.5005 C28.629,21.401 28.588,19.987 28.924,18.731 C29.248,17.516 30,16.316 30,14.9995 C30,13.6835 28.948,10.959 28.948,10.959 L17.456,10.367 Z" fill="#DDA85F"></path>
        <path d="M28.71,10.202 C28.2285,10.3305 27.518,10.322 26.768,10.018 C25.7355,9.599 25.06,8.788 24.875,7.7605 C24.3835,7.899 23.1815,7.7555 22.3625,7.242 C21.1685,6.494 20.9315,4.409 20.9315,4.409 C19.579,4.0175 18.562,2.427 18.7245,1.073 C17.6135,0.7735 16.205,0.8335 15,0.8335 C13.7935,0.8335 12.693,1.522 11.5805,1.819 C10.428,2.127 9.1325,2.0905 8.124,2.673 C7.101,3.266 6.489,4.412 5.659,5.2415 C4.8285,6.072 3.6825,6.6845 3.0905,7.707 C2.507,8.716 2.5445,10.011 2.2365,11.1635 C1.9395,12.276 1.25,13.377 1.25,14.583 C1.25,15.7895 1.9395,16.89 2.2365,18.0035 C2.5445,19.155 2.507,20.451 3.0905,21.459 C3.6825,22.482 4.8285,23.0945 5.659,23.9245 C6.489,24.754 7.101,25.901 8.124,26.493 C9.1325,27.0765 10.428,27.039 11.5805,27.347 C12.693,27.645 13.7935,28.3335 15,28.3335 C16.2075,28.3335 17.3075,27.645 18.4215,27.347 C19.573,27.039 20.869,27.0765 21.8765,26.493 C22.8995,25.901 23.512,24.754 24.342,23.9245 C25.1725,23.0945 26.3185,22.482 26.9105,21.459 C27.494,20.4505 27.4565,19.155 27.7645,18.0035 C28.0615,16.89 29.2445,16.015 29.425,14.8225 C29.737,12.76 28.7625,10.532 28.71,10.202 Z" fill="#F2CB7D"></path>
        <g transform="translate(20.500000, 2.000000)" fill="#DDA85F">
            <polygon points="3.553 2.414 2.8655 3.1015 2.178 2.414 2.8655 1.7265"></polygon>
            <polygon points="6.4245 5.878 6.0755 6.2265 5.726 5.878 6.0755 5.5285"></polygon>
            <polygon points="3.9025 3.6095 3.5535 3.958 3.204 3.6095 3.5535 3.26"></polygon>
            <polygon points="0.778 0.5675 0.429 0.916 0.0795 0.5675 0.429 0.218"></polygon>
            <polygon points="7.1225 7.168 6.774 7.5165 6.4245 7.168 6.774 6.8185"></polygon>
            <polygon points="7.3815 5.878 7.0325 6.2265 6.683 5.878 7.0325 5.5285"></polygon>
        </g>
        <g transform="translate(4.500000, 7.000000)">
            <path d="M0.404,2.3105 C-0.0795,3.1415 0.6545,4.7325 1.6315,5.1375 C3.095,5.7455 3.9505,5.8355 4.83,4.307 C5.14,3.7685 5.5365,2.3175 5.3875,1.976 C5.1695,1.475 4.3345,0.49 3.7885,0.4875 C2.2265,0.481 0.759,1.7 0.404,2.3105 Z" fill="#6D4934"></path>
            <path d="M0.645,2.309 C0.287,2.9245 1.2095,4.708 2.375,4.58 C4.0045,4.401 3.8875,0.9585 3.1535,0.9585 C1.996,0.9585 0.908,1.857 0.645,2.309 Z" fill="#A37F6A"></path>
        </g>
        <g transform="translate(18.500000, 14.500000)">
            <path d="M3.118,4.047 C3.8375,3.8565 4.306,2.5835 3.994,1.827 C3.525,0.693 3.1065,0.175 1.7875,0.53 C1.323,0.6555 0.3115,1.2325 0.2065,1.501 C0.0505,1.8945 -0.0305,2.891 0.267,3.1915 C1.1185,4.0505 2.59,4.1865 3.118,4.047 Z" fill="#6D4934"></path>
            <path d="M2.3815,2.8525 C2.9145,2.712 3.764,1.022 2.867,0.8785 C1.3,0.628 0.103,1.355 0.269,2.219 C0.4375,3.099 1.9895,2.9565 2.3815,2.8525 Z" fill="#A37F6A"></path>
        </g>
        <g transform="translate(8.000000, 20.000000)">
            <path d="M3.451,1.2595 C3.286,0.635 2.1815,0.2285 1.525,0.4995 C0.5415,0.906 0.092,1.2695 0.4,2.4135 C0.509,2.8165 1.0095,3.694 1.2425,3.785 C1.584,3.9205 2.4485,3.9905 2.709,3.7325 C3.454,2.9935 3.5725,1.718 3.451,1.2595 Z" fill="#6D4934"></path>
            <path d="M2.5795,0.7955 C2.4575,0.333 0.37,1.0185 0.5915,1.775 C0.981,3.1045 0.9915,3.3475 1.412,3.252 C2.1705,3.081 2.67,1.1355 2.5795,0.7955 Z" fill="#A37F6A"></path>
        </g>
        <g id="Group" transform="translate(23.500000, 11.500000)">
            <path d="M1.0475,0.2595 C0.423,0.4245 0.0165,1.529 0.2875,2.1855 C0.694,3.169 1.637,3.3355 2.6845,2.781 C3.57,2.312 3.6305,0.708 3.372,0.448 C2.6335,-0.2975 1.506,0.138 1.0475,0.2595 Z" fill="#6D4934"></path>
            <path d="M0.8095,0.7915 C0.4865,1.1435 0.2615,2.5445 1.018,2.323 C2.3475,1.9335 3.3095,0.552 2.7055,0.3645 C1.9635,0.134 1.15,0.421 0.8095,0.7915 Z" fill="#A37F6A"></path>
        </g>
        <rect fill="#6D4934" transform="translate(11.362315, 7.040917) rotate(-45.000000) translate(-11.362315, -7.040917) " x="10.6538216" y="6.33242414" width="1.41698641" height="1.41698641"></rect>
        <rect fill="#DDA85F" transform="translate(7.335903, 15.754184) rotate(-45.016206) translate(-7.335903, -15.754184) " x="6.62765994" y="15.0456903" width="1.41648647" height="1.41698647"></rect>
        <rect fill="#DDA85F" transform="translate(17.351249, 21.416008) rotate(-45.000000) translate(-17.351249, -21.416008) " x="16.642756" y="20.7075147" width="1.41698641" height="1.41698641"></rect>
        <rect fill="#DDA85F" transform="translate(16.349645, 18.632029) rotate(-45.000000) translate(-16.349645, -18.632029) " x="15.3949046" y="17.6775381" width="1.90948169" height="1.90898169"></rect>
        <rect fill="#DDA85F" transform="translate(12.712093, 3.916979) rotate(-45.000000) translate(-12.712093, -3.916979) " x="11.7573518" y="2.96248788" width="1.90948169" height="1.90898169"></rect>
        <rect fill="#6D4934" transform="translate(20.579100, 22.160122) rotate(-45.000000) translate(-20.579100, -22.160122) " x="19.8706072" y="21.4516283" width="1.41698641" height="1.41698641"></rect>
        <rect fill="#6D4934" transform="translate(24.547764, 16.629932) rotate(-45.000000) translate(-24.547764, -16.629932) " x="23.8392706" y="15.921439" width="1.41698641" height="1.41698641"></rect>
        <rect fill="#6D4934" transform="translate(20.423144, 11.307980) rotate(-45.000000) translate(-20.423144, -11.307980) " x="20.069647" y="10.9544833" width="1" height="1"></rect>
        <rect fill="#6D4934" transform="translate(6.333909, 18.131866) rotate(-45.000000) translate(-6.333909, -18.131866) " x="5.98041199" y="17.7783692" width="1" height="1"></rect>
    </symbol>

    <!-- #iconArrowLeft -->
    <symbol xmlns="http://www.w3.org/2000/svg" viewBox="0 0 6 10" id="iconArrowLeft">
        <polyline stroke="currentColor" fill="none" stroke-width="2" stroke-linecap="round" stroke-linejoin="round" points="5 9 1 5 5 1"></polyline>
    </symbol>

    <!-- #iconArrowRight -->
    <symbol xmlns="http://www.w3.org/2000/svg" viewBox="0 0 6 10" id="iconArrowRight">
        <polyline stroke="currentColor" fill="none" stroke-width="2" stroke-linecap="round" stroke-linejoin="round" points="1 1 5 5 1 9"></polyline>
    </symbol>

    <!-- #twitterIcon -->
    <symbol xmlns="http://www.w3.org/2000/svg" viewBox="0 0 28 23" id="twitterIcon">
        <path stroke="none" fill="#1DA1F2" fill-rule="nonzero" d="M25.1534358,6.47969831 C25.1534358,6.23113923 25.1534358,5.98258015 25.1358644,5.72514396 C26.260433,4.89957273 27.2268591,3.8875822 28,2.71580368 C26.9545027,3.18629051 25.8387198,3.49698936 24.6965799,3.63014601 C25.9002196,2.90222299 26.7963602,1.76595291 27.2268591,0.41663219 C26.1022906,1.09129255 24.863508,1.57065649 23.580797,1.82809268 C21.4019454,-0.506587249 17.764669,-0.621989679 15.454032,1.5795336 C13.9604644,2.9998712 13.3278946,5.11262337 13.7935362,7.12772734 C9.17226232,6.89692248 4.8672733,4.68652209 1.9504236,1.06466122 C0.42171321,3.71891711 1.20363979,7.10997312 3.72513335,8.81437824 C2.8114214,8.78774691 1.91528083,8.53918783 1.11578287,8.08645522 L1.11578287,8.1574721 C1.11578287,10.9182533 3.04863508,13.2973188 5.7282711,13.8476996 C4.88484468,14.0785045 3.9974898,14.1140129 3.136492,13.9453478 C3.8920615,16.3066591 6.04455601,17.9311702 8.50454973,17.9755557 C6.46626922,19.5911898 3.95356134,20.4700237 1.37056793,20.4700237 C0.913711955,20.4700237 0.456855977,20.4433923 0,20.3901297 C2.61813618,22.0945348 5.67555695,23 8.80326326,23 C19.3724506,23 25.1534358,14.1495213 25.1534358,6.47969831 Z"></path>
    </symbol>

    <!-- #quoteSign -->
    <symbol xmlns="http://www.w3.org/2000/svg" viewBox="0 0 49 38" id="quoteSign">
        <path d="M10.69444,0.876 C11.241109,0.329331 11.733104,0.056 12.17044,0.056 C12.607775,0.056 13.045104,0.274664 13.48244,0.712 L14.452868,1.898125 C14.747241,2.257914 14.754848,2.773115 14.471226,3.141438 C12.645349,5.512595 11.413753,7.436116 10.77644,8.912 C9.737768,11.317345 9.21844,13.667989 9.21844,15.964 C9.21844,16.729337 9.327772,17.330664 9.54644,17.768 C10.639778,17.549332 11.514436,17.44 12.17044,17.44 C14.903787,17.44 17.199764,18.396657 19.05844,20.31 C20.917116,22.223343 21.84644,24.491987 21.84644,27.116 C21.84644,30.068015 20.862449,32.500657 18.89444,34.414 C16.92643,36.327343 14.466454,37.284 11.51444,37.284 C8.125089,37.284 5.419116,35.972013 3.39644,33.348 C1.373763,30.723987 0.36244,27.498686 0.36244,23.672 C0.36244,19.298645 1.319097,15.089354 3.23244,11.044 C5.145782,6.998646 7.633091,3.609347 10.69444,0.876 Z M37.09844,0.876 C37.645109,0.329331 38.137104,0.056 38.57444,0.056 C39.011775,0.056 39.449104,0.274664 39.88644,0.712 L40.856868,1.898125 C41.151241,2.257914 41.158848,2.773115 40.875226,3.141438 C39.049349,5.512595 37.817753,7.436116 37.18044,8.912 C36.141768,11.317345 35.62244,13.667989 35.62244,15.964 C35.62244,16.729337 35.731772,17.330664 35.95044,17.768 C37.043778,17.549332 37.918436,17.44 38.57444,17.44 C41.307787,17.44 43.603764,18.396657 45.46244,20.31 C47.321116,22.223343 48.25044,24.491987 48.25044,27.116 C48.25044,30.068015 47.266449,32.500657 45.29844,34.414 C43.33043,36.327343 40.870454,37.284 37.91844,37.284 C34.529089,37.284 31.823116,35.972013 29.80044,33.348 C27.777763,30.723987 26.76644,27.498686 26.76644,23.672 C26.76644,19.298645 27.723097,15.089354 29.63644,11.044 C31.549782,6.998646 34.037091,3.609347 37.09844,0.876 Z"></path>
    </symbol>

    <!-- #warningSign -->
    <symbol xmlns="http://www.w3.org/2000/svg" viewBox="0 0 48 43" id="warningSign">
        <path d="M19.9711 2.421C21.9025 -0.806998 26.0975 -0.807 28.0289 2.421L47.1521 34.3814C49.3451 38.0465 47.0295 43 43.1232 43H4.87676C0.970513 43 -1.34508 38.0465 0.847877 34.3814L19.9711 2.421Z" fill="currentColor"/>
        <path d="M21.6 14.3445C21.6 13.019 22.6745 11.9445 24 11.9445V11.9445C25.3255 11.9445 26.4 13.019 26.4 14.3445V25.4704C26.4 26.7959 25.3255 27.8704 24 27.8704V27.8704C22.6745 27.8704 21.6 26.7959 21.6 25.4704V14.3445Z" fill="white"/>
        <ellipse cx="24" cy="33.4444" rx="2.4" ry="2.38889" fill="white" />
    </symbol>
</svg>
